
<svg xmlns="http://www.w3.org/2000/svg" xmlns:xlink="http://www.w3.org/1999/xlink" viewBox="0 0 162.62 200.75"><defs><linearGradient id="linear-gradient" x1="816.85" y1="-888.24" x2="816.85" y2="-635.57" gradientTransform="translate(-306.91 461.33) scale(0.48)" gradientUnits="userSpaceOnUse"><stop offset="0" stop-color="#00abeb"></stop><stop offset="1" stop-color="#00498a"></stop></linearGradient></defs><g id="레이어_2"><g id="Layer_2"><path d="M121.21,170.89l-3.85-4.36-1.27,1.12,3.85,4.36-1.25,1.1-3.85-4.35-1.26,1.12,3.85,4.36-2.66,2.34c-.19.17.27.29.46.3a.94.94,0,0,0,.74-.2l9.46-8.36-.58-.65Z" style="fill:#0078af"></path><path d="M121.93,168.78l-.52,0c-.35-1.32-2.3-3.63-5.12-6.75l-6,5.33a1,1,0,0,1-.8.16c-.19,0-.64-.14-.45-.31l7.91-7C120.38,164.05,122,166.8,121.93,168.78Z" style="fill:#0078af"></path><path d="M74.53,179.12a1,1,0,0,0-.32-.79,1.2,1.2,0,0,0-.62-.35l.13-.32c.24,0,1,.06,1.32.07h4.51v1H76.21v5.65c0,.35.12.59.37.59a7.55,7.55,0,0,0,2-.31,21.45,21.45,0,0,0,2.52-.68l0-6.83a1,1,0,0,0-.31-.79,1.21,1.21,0,0,0-.64-.38l.13-.32,2.44.54c0,.12,0,.32-.05.61a7.36,7.36,0,0,0,0,.77v3.29h1.68v-5.24a1,1,0,0,0-.31-.79,1.37,1.37,0,0,0-.65-.38l.13-.32,2.5.55c0,.1,0,.3,0,.59s0,.54,0,.76V189.1c0,.49,0,1.82-.68,2.3-.23.16-.91.49-.91-.19v-9.44H82.56v7a1.36,1.36,0,0,1-.71,1.32c-.23.17-.8.5-.8-.18v-5.32a23.18,23.18,0,0,1-2.69,1,8.42,8.42,0,0,1-2.57.49,1.53,1.53,0,0,1-1-.25,1.13,1.13,0,0,1-.29-.81h0Z" style="fill:#0078af"></path><path d="M106.25,179.22l-9.15,3.27c-.24.08.15.37.31.45a1,1,0,0,0,.76.09l6.78-2.42,1.54,4.3c.23.64.76.11.93-.13a1.43,1.43,0,0,0,.27-1.51Z" style="fill:#0078af"></path><path d="M100.63,172.59l-3.27,1.17-.52-1.46-1.33.48.51,1.46-3.4,1.21c-.23.08.15.37.32.45a1,1,0,0,0,.76.09l1.72-.61a3.16,3.16,0,0,0-.92,3.21,3.61,3.61,0,0,0,6.72-2.4,3.12,3.12,0,0,0-2.74-1.9l2.45-.88Zm-1,4.16a1.92,1.92,0,1,1-2.52-1.4A2,2,0,0,1,99.65,176.75Z" style="fill:#0078af"></path><path d="M101.55,171a1,1,0,0,0-.56-.65,1.36,1.36,0,0,0-.73-.14v-.33l2.62-.36q0,.15.15.57c.08.28.15.52.23.73l1,2.71,1.62-.58.32.89-1.62.58.88,2.47a1.42,1.42,0,0,1-.27,1.5c-.17.24-.7.77-.93.13Z" style="fill:#0078af"></path><path d="M161,100.38c0,54.52-35.66,98.72-79.66,98.72S1.65,154.9,1.65,100.38,37.32,1.65,81.31,1.65,161,45.85,161,100.38Z" style="fill:none;stroke:#0078af;stroke-width:3.2985px"></path><path d="M50.34,60.5l3,60h4.53c2.43,0,3.82-1.55,3.82-4.09V90.05h7.58v29.34c0,5.75-4.41,8-11.4,7.92H53.66l.39,7.79h5.56c11,0,17.37-5,17.37-14.14V90.05h7.55V121c0,13-6.64,21.19-24.92,21.19H54.4l.29,5.83L105,158.73l7-114.57Z" style="fill:url(#linear-gradient)"></path><path d="M99.89,55c0,4.73-1.43,9.44-4.93,12.79a7.77,7.77,0,0,0-1,1.13c1.33.35,2.81.61,4.24.88s2.89.29,4.42.44c.09.12.45.19.38.48-.17.48-.8.58-1.19.95-2.52,1.94-5.79,2.25-8.72,3.27a39.35,39.35,0,0,1-1.61,3.76A22.9,22.9,0,0,1,83,85.16a7.59,7.59,0,0,1-.92,0c-.37-.61.27-1.14.31-1.75a58.11,58.11,0,0,1,1.33-7.71,12,12,0,0,0,.49-1.58c-4.12,0-8-.29-12.22-.43-.37.21-1.82-.41-1.82-.54v-.12A22.19,22.19,0,0,1,75.58,70c.88-.35,1.75-.77,2.64-1.09.6-.22,2.79-.51,3.11-1.07l.1-.17s0-3.14,0-3.49c.08-2.5-.23-5.21.44-7.57a1.86,1.86,0,0,1,.4-1.16c.63,0,1,.85,1.64,1.09,1.53,2.62,3.3,5.16,4.32,8,3.66-2.38,6.62-5.8,10-8.66l1.09-1.33C99.72,54.48,99.69,54.8,99.89,55Z" style="fill:#f7d300"></path><path d="M32.71,151.46a1.89,1.89,0,1,1-1.89-1.88A1.89,1.89,0,0,1,32.71,151.46Z" style="fill:#0078af"></path><path d="M135,151.46a1.89,1.89,0,1,1-1.89-1.88A1.89,1.89,0,0,1,135,151.46Z" style="fill:#0078af"></path><path d="M16.66,134.94l.43-.15c.62,1.36.8,1.46,2.86.72l6.68-2.37c2.08-.74,3.49-1,5.14,0a5.4,5.4,0,0,1,1.61,1.47l-.37.33a3.17,3.17,0,0,0-3-1,20.82,20.82,0,0,0-3.54,1l-6,2.12c-2.06.74-2.15.93-1.71,2.51l-.44.16Z" style="fill:#0078af"></path><path d="M16.07,121c-2.16.35-2.27.53-2.15,2l-.45.08-1.34-8.25c.33-.07,1.76-.4,2.86-.67l.13.46a3.84,3.84,0,0,0-1.71,1c-.29.36-.33,1-.14,2.15l.23,1.43c.09.53.13.56.71.46l4.52-.73-.31-1.9c-.27-1.62-.39-1.66-1.89-1.61l-.08-.47,3.93-.64.07.47c-.72.22-1.1.34-1.28.62s-.15.7,0,1.51l.31,1.9,3.51-.57c1.13-.18,1.7-.39,1.88-.79a4.15,4.15,0,0,0-.07-2c-.18-1.07-.42-1.94-1-2.28a5.64,5.64,0,0,0-2.09-.58l0-.48c.57,0,2.66.08,3.22.15l1.45,8.9-.46.08c-.39-1.68-.56-1.81-2.72-1.46Z" style="fill:#0078af"></path><path d="M18.62,90.8c3.73.16,5.52,2.1,5.42,4.39-.12,2.78-2.93,4.59-6.8,4.43s-5.64-2.15-5.54-4.4C11.82,92.49,14.29,90.61,18.62,90.8Zm-7.56,3.9c-.18,4.25,3.31,6.65,6.68,6.79,3.79.16,6.79-2.27,6.94-5.87S22.13,89.1,18,88.92C14,88.75,11.2,91.4,11.06,94.7Z" style="fill:#0078af"></path><path d="M29.31,68.39l-.13.48L16.78,74v0l4.93,1.37a35.16,35.16,0,0,0,3.72.87c.7.09,1.11-.33,1.5-1.53l.45.13-1.22,4.41-.45-.13c.25-1,.09-1.58-.56-1.86a32.94,32.94,0,0,0-3.64-1.16L17.3,75c-1.39-.39-1.71-.45-2.24-.25A2.08,2.08,0,0,0,14,76.19l-.44-.12.74-2.69,11.89-5v0L21.53,67a30.47,30.47,0,0,0-3.72-.87c-.7-.1-1.11.32-1.5,1.52l-.45-.12,1.22-4.41.45.12c-.25,1-.09,1.58.56,1.86a32.94,32.94,0,0,0,3.64,1.16Z" style="fill:#0078af"></path><path d="M24.42,47.16l.41.22C24.24,48.75,24.3,49,26.24,50l6.27,3.29c2,1,3.09,1.9,3.53,3.74a5.33,5.33,0,0,1,0,2.18l-.5,0a3.17,3.17,0,0,0-1.28-2.92,21.66,21.66,0,0,0-3.16-1.89l-5.62-2.94c-1.94-1-2.13-1-3,.45l-.41-.22Z" style="fill:#0078af"></path><path d="M34.64,32.67,35,33c-.94,1.21-.94,1.41.68,2.89l3.11,2.82a7.15,7.15,0,0,0,3.42,2,3.07,3.07,0,0,0,2.87-1.1,3.21,3.21,0,0,0,.77-3.09,9.21,9.21,0,0,0-2.72-3.63l-.81-.73a30.87,30.87,0,0,0-2.94-2.46c-.58-.4-1.13-.21-2,.68L37,30.07l3.08-3.39.34.31c-.67.8-.78,1.37-.33,1.92a35.26,35.26,0,0,0,2.74,2.69l1,.9c1.73,1.57,2.72,2.93,2.89,4.58a5.13,5.13,0,0,1-4.16,5.21c-1.32.17-2.64-.41-4.33-1.95l-3.63-3.29c-1.62-1.47-1.82-1.45-3-.35l-.34-.31Z" style="fill:#0078af"></path><path d="M70.65,11l.07.46c-1.48.37-1.61.53-1.25,2.69l.69,4.14A7.1,7.1,0,0,0,71.6,22a3.06,3.06,0,0,0,2.93.91A3.18,3.18,0,0,0,77.05,21a9.27,9.27,0,0,0,.11-4.53L77,15.4a31.32,31.32,0,0,0-.78-3.76c-.21-.68-.76-.87-2-.72l-.08-.46,4.51-.75.08.46c-1,.21-1.47.59-1.45,1.3a34.3,34.3,0,0,0,.49,3.8L78,16.6c.38,2.3.31,4-.57,5.39a4.84,4.84,0,0,1-3.24,2,4.74,4.74,0,0,1-3.26-.49c-1.14-.69-1.81-2-2.19-4.22l-.81-4.83c-.36-2.15-.53-2.27-2.13-2.12l-.08-.46Z" style="fill:#0078af"></path><path d="M97.35,26.05l-.48-.13L91.68,13.54h0l-1.35,4.93a33.63,33.63,0,0,0-.85,3.72c-.1.71.32,1.11,1.52,1.5l-.12.45-4.41-1.21.12-.44c1,.23,1.58.07,1.86-.58a35.5,35.5,0,0,0,1.15-3.64l1.15-4.2c.38-1.39.44-1.71.23-2.24s-.68-.84-1.43-1.1l.12-.45,2.68.73,5.08,11.88h0l1.26-4.63a31.73,31.73,0,0,0,.86-3.72c.09-.7-.33-1.11-1.53-1.5l.12-.44,4.42,1.2-.12.45c-1-.24-1.58-.08-1.86.57a31.53,31.53,0,0,0-1.15,3.64Z" style="fill:#0078af"></path><path d="M108.89,29.11c-1.22,1.82-1.17,2,.06,3l-.26.38-4.18-2.8.26-.38c1.36.77,1.57.74,2.79-1.08l4-6c1.22-1.82,1.17-2-.06-3l.26-.39L116,21.65l-.26.38c-1.36-.77-1.57-.74-2.79,1.08Z" style="fill:#0078af"></path><path d="M117.56,40.86c1.84-3.35,4.34-8,5.47-10.09.85-1.56.78-1.85.11-2.79l.35-.31,3.06,3.48-.35.3-.46-.4c-.54-.46-.77-.42-1.1.15-.78,1.36-2.78,5.08-4.67,8.6,2.73-1.09,7.24-2.87,8.49-3.42,1.1-.48,1.17-.8.68-1.51l-.34-.47.35-.3,2.76,3.13-.34.3c-.95-.86-1.17-.9-3-.26-.64.23-6.67,2.4-10.67,4Z" style="fill:#0078af"></path><path d="M135.25,48c1.94-1,2-1.23,1.38-2.63l.41-.22L141,52.51c-.29.18-1.54,1-2.49,1.56l-.27-.39a3.91,3.91,0,0,0,1.31-1.47c.16-.43,0-1.05-.56-2.08l-.68-1.28c-.25-.47-.3-.49-.82-.22l-4,2.15.9,1.7c.77,1.45.9,1.44,2.3.92l.23.42-3.51,1.86-.23-.42c.61-.43.94-.67,1-1s-.08-.71-.46-1.43l-.91-1.7-3.14,1.66c-1,.54-1.49.92-1.53,1.35a4.18,4.18,0,0,0,.7,1.84c.51,1,1,1.7,1.64,1.85a5.86,5.86,0,0,0,2.17-.12l.17.45c-.54.18-2.55.77-3.1.89l-4.23-8,.41-.22c.91,1.46,1.11,1.53,3,.51Z" style="fill:#0078af"></path><path d="M144.86,65.79c.38-.12.49-.09.57,0a3.24,3.24,0,0,1,.4,1,2.73,2.73,0,0,1-2,3.61,3.31,3.31,0,0,1-2.85-.3,2.68,2.68,0,0,1-1.07-1.67l-.32-1.06ZM139,67.54l.3,1a1.21,1.21,0,0,1-.35,1.36c-.75.78-1.94,2-2.63,2.8-.85,1-1.33,1.86-.75,4l.07.26.38-.07a2.4,2.4,0,0,1,.55-1.66A18.08,18.08,0,0,1,138.25,73c.68-.81,1.78-2,2.26-2.46A3.73,3.73,0,0,0,144.6,72,3,3,0,0,0,146.7,70a5.42,5.42,0,0,0-.22-3.08l-1.4-4.64-.44.14c.33,1.49.24,1.68-1.86,2.31l-6.92,2.08c-2.1.63-2.27.53-2.85-1l-.44.13L134,70.84l.44-.13c-.33-1.53-.24-1.72,1.85-2.35Z" style="fill:#0078af"></path><path d="M140.56,83.4c-.89.42-3,1.66-2.73,3.66a2.32,2.32,0,0,0,2.86,2c1.69-.21,2.23-1.53,2.7-2.82.24-.66.86-3.33,3.25-3.63a3.65,3.65,0,0,1,4.15,3.44,5.21,5.21,0,0,1-.06,1.6,6.24,6.24,0,0,0-.13.75c-.69.16-1.47.37-2.65.67l-.12-.46c1.14-.47,2.47-1.17,2.25-2.9A2,2,0,0,0,147.62,84c-1.48.18-2,1.27-2.51,2.79-.42,1.32-1,3.41-3.46,3.72a4,4,0,0,1-4.53-3.71A6,6,0,0,1,137.2,85a9.19,9.19,0,0,1,.29-1.09c.5-.22,1.88-.6,2.94-.93Z" style="fill:#0078af"></path><path d="M141.16,101.85c-2.19,0-2.33.13-2.47,1.69h-.46l.05-5h.46c.11,1.56.24,1.72,2.43,1.74l7.23.07c2.19,0,2.33-.13,2.46-1.69h.47l-.05,5h-.47c-.1-1.57-.24-1.72-2.43-1.74Z" style="fill:#0078af"></path><path d="M139.75,117.33c-2.16-.34-2.32-.21-2.73,1.61l-.46-.07.87-5.5.46.07c-.17,1.79,0,2,2.11,2.31l9.36,1.48.14-.89c.26-1.67.09-2.22-.24-2.56a5.29,5.29,0,0,0-1.61-.93l.08-.47c1.2.26,2.45.58,3.45.77l0,.27c-.5.21-.57.39-.65.9L149.27,122c-.08.49,0,.6.35,1l0,.26c-.83-.11-2.3-.25-3.46-.34v-.48a3.86,3.86,0,0,0,1.94-.39c.42-.26.65-.82.84-2l.2-1.26Z" style="fill:#0078af"></path><path d="M135.25,134.62c-2.06-.73-2.25-.63-3,1l-.43-.15,1.82-5.18.44.15c-.47,1.7-.39,1.89,1.67,2.62l2.16.76a2.19,2.19,0,0,0,1.28,0c1.76-.29,3.37-.51,5-.79s1.76-.33,2.26-1.32l.44.15-1.53,4.33-.44-.15.18-.87c.08-.47,0-.66-.74-.56-1.87.25-3.74.52-5.6.85,1.25,1.29,2.52,2.65,3.83,3.86.58.55.82.47,1.13-.18l.35-.69.44.15-1.4,4-.43-.15c.31-1.25.09-1.43-.89-2.62s-2.1-2.42-3.35-3.73a1.77,1.77,0,0,0-.91-.67Z" style="fill:#0078af"></path><path d="M44.07,158.81c-.2-.16-.25.31-.24.5a1,1,0,0,0,.3.71l2.92,2.53A16.21,16.21,0,0,1,38.7,164l-.17.48a14.33,14.33,0,0,0,5.94.42A6.2,6.2,0,0,1,44,168.8l1.76.19a8.72,8.72,0,0,0-.56-4.25,13.35,13.35,0,0,0,3.92-1.1c.29-.14.16-.3,0-.46Z" style="fill:#0078af"></path><path d="M52.4,164.45a1,1,0,0,0,.28-.81,1.41,1.41,0,0,0-.24-.71l.3-.16,1.61,2.11q-.12.1-.42.42a6.53,6.53,0,0,0-.53.56L47.23,173a1.45,1.45,0,0,1-1.45.51c-.29,0-1-.23-.57-.75l3.9-4.52-1.36-1.17a1,1,0,0,1-.29-.71c0-.19,0-.66.23-.5l2,1.72,1.43-1.65Z" style="fill:#0078af"></path><path d="M40.21,168.6a1,1,0,0,0,.29-.81,1.33,1.33,0,0,0-.25-.71l.31-.16,1.6,2.11-.42.42c-.21.2-.38.39-.53.56l-1.27,1.47a.44.44,0,0,0-.12.39.63.63,0,0,0,.18.32l4.54,3.92-.57.66L39,172.51a2.6,2.6,0,0,1-.73-.91,1,1,0,0,1,.23-1.07h0Z" style="fill:#0078af"></path><path d="M64.61,173.29c-1.84,1.37-7.39,1.51-8.51,1.32h0v.55a26.74,26.74,0,0,0,6.15.28,17.4,17.4,0,0,1,3.41,3.84l1.51-.75a15.48,15.48,0,0,0-3.89-3.26,15,15,0,0,0,4.21-1.34c.25-.21-.18-.44-.4-.53L59.18,170h0c-.2-.09-.13.33-.08.49s.13.49.4.61h0Z" style="fill:#0078af"></path><path d="M67.32,181.26,54.18,175.6c-.23-.13-.14.37-.06.56a1,1,0,0,0,.53.6L59.82,179l-2.5,5.8c-.29.67.47.62.76.55a1.48,1.48,0,0,0,1.27-1l2-4.7L67,182.06Z" style="fill:#0078af"></path></g></g></svg>