
<svg xmlns="http://www.w3.org/2000/svg" xmlns:xlink="http://www.w3.org/1999/xlink" viewBox="0 0 202.17 375.65"><defs><linearGradient id="linear-gradient" x1="778.09" y1="-903.36" x2="778.09" y2="-650.69" gradientTransform="translate(-1111.1 1392.53) scale(1.56)" gradientUnits="userSpaceOnUse"><stop offset="0" stop-color="#00abeb"></stop><stop offset="1" stop-color="#00498a"></stop></linearGradient></defs><g id="레이어_2"><g id="Layer_1"><path d="M0,53.58,9.78,250.35H24.62c8,0,12.53-5.08,12.53-13.42V150.47H62v96.29s0-.06,0-.09v.09c0,18.78-14.49,26-37.35,25.88H10.88l1.27,25.55H30.38c36,0,57-16.35,57-46.37V150.47h24.75V251.83c0,42.62-21.75,69.45-81.7,69.45H13.29l1,19.14L179.3,375.65,202.17,0Z" style="fill:url(#linear-gradient)"></path><path d="M162.46,35.43c0,15.5-4.71,30.94-16.16,41.9A26.47,26.47,0,0,0,143,81.07c4.37,1.12,9.23,2,13.92,2.87,4.94.55,9.47,1,14.47,1.42.32.4,1.51.65,1.28,1.6-.57,1.59-2.62,1.9-3.9,3.1-8.27,6.36-19,7.4-28.63,10.73-2,4.06-2.85,8.53-5.25,12.34a75.35,75.35,0,0,1-27.91,21.3,21.56,21.56,0,0,1-3,.16c-1.19-2,.88-3.73,1-5.72a187.06,187.06,0,0,1,4.37-25.29,42.62,42.62,0,0,0,1.6-5.17c-13.52-.08-26.33-1-40.09-1.43-1.19.72-6-1.36-6-1.75v-.4A71.42,71.42,0,0,1,82.75,84.74c2.9-1.16,5.73-2.55,8.65-3.58,2-.72,9.16-1.67,10.21-3.51l.32-.55s0-10.33.15-11.45c.25-8.2-.78-17.1,1.44-24.82A6.12,6.12,0,0,1,104.8,37c2.07,0,3.41,2.78,5.4,3.57,5,8.6,10.82,16.94,14.15,26.33,12-7.8,21.71-19,32.77-28.39l3.57-4.37C161.89,33.84,161.82,34.87,162.46,35.43Z" style="fill:#f7d300"></path></g></g></svg>