
<svg xmlns="http://www.w3.org/2000/svg" xmlns:xlink="http://www.w3.org/1999/xlink" viewBox="0 0 371.82 182"><defs><linearGradient id="linear-gradient" x1="985.99" y1="-1158.94" x2="985.99" y2="-906.27" gradientTransform="translate(-232.12 661.16) scale(0.57)" gradientUnits="userSpaceOnUse"><stop offset="0" stop-color="#00abeb"></stop><stop offset="1" stop-color="#00498a"></stop></linearGradient></defs><g id="레이어_2"><g id="Layer_2"><path d="M297.24,19.76l3.59,72.57h5.48c2.95,0,4.62-1.87,4.62-4.94V55.5h9.17V91c0,6.94-5.35,9.62-13.79,9.56h-5.07l.47,9.42h6.73c13.29,0,21-6,21-17.1V55.5h9.14V92.88c0,15.72-8,25.61-30.14,25.61h-6.31l.36,7.06,60.88,13L371.82,0Z" style="fill:url(#linear-gradient)"></path><path d="M357.15,13.05c0,5.73-1.74,11.42-6,15.48A9.33,9.33,0,0,0,350,29.89c1.61.42,3.41.74,5.15,1.06s3.48.36,5.33.53c.13.15.55.24.46.59-.19.59-.95.7-1.42,1.15-3.07,2.33-7,2.72-10.56,4-.74,1.5-1.06,3.14-1.95,4.55a27.67,27.67,0,0,1-10.29,7.86,7.33,7.33,0,0,1-1.12.06c-.44-.73.33-1.38.39-2.11a67.9,67.9,0,0,1,1.61-9.33,15.05,15.05,0,0,0,.6-1.91c-5,0-9.73-.35-14.8-.53-.44.27-2.19-.5-2.19-.64V35a27,27,0,0,1,6.58-3.71c1.07-.43,2.12-.94,3.2-1.33.73-.26,3.37-.61,3.76-1.28l.12-.2s0-3.82.06-4.24c.08-3-.29-6.29.53-9.14a2.33,2.33,0,0,1,.47-1.42c.77,0,1.26,1,2,1.33,1.84,3.16,4,6.24,5.22,9.7,4.42-2.86,8-7,12.09-10.47l1.3-1.62C356.94,12.47,356.92,12.85,357.15,13.05Z" style="fill:#f7d300"></path><path d="M254.35,135.14V114.2h-6.09v20.94h-6V114.2h-6.1v20.94H223.37c-.9,0,.06,1.42.53,1.9a3.46,3.46,0,0,0,2.47,1.24h45.5v-3.14Z" style="fill:#231815"></path><path d="M211.32,125.51h-35c-.91,0,.06,1.43.53,1.91a3.43,3.43,0,0,0,2.47,1.22h25.94v16.47c0,2.45,2.45,1.27,3.3.68,2.43-1.7,2.76-3.19,2.76-4.78Z" style="fill:#231815"></path><path d="M200.3,96.21H187.79V90.64h-5.12v5.57h-13c-.89,0,.06,1.44.54,1.91a3.47,3.47,0,0,0,2.47,1.23h6.55c-4,1.86-7,5.55-7,9.79,0,6.12,5.92,11.09,12.84,11.09s12.86-5,12.86-11.09c0-4.24-3-7.93-7-9.79h9.35Zm-8.37,12.93c0,4.31-3.06,7.82-6.85,7.82s-6.84-3.51-6.84-7.82,3.06-7.8,6.84-7.8S191.93,104.84,191.93,109.14Z" style="fill:#231815"></path><path d="M261.31,131.17,259.85,130c2.22-4.41,2.48-15.31,2.29-30.44h-29a3.55,3.55,0,0,1-2.53-1.47c-.47-.52-1.38-1.9-.48-1.9h38C268.44,114.72,266.34,126.06,261.31,131.17Z" style="fill:#231815"></path><path d="M117.31,104.37a3.59,3.59,0,0,0-1.14-2.87,4.47,4.47,0,0,0-2.23-1.28l.46-1.12c.85.12,3.7.21,4.76.23H135.4v3.44h-12v20.74c0,1.24.43,2.1,1.32,2.1a28.1,28.1,0,0,0,7-1.09,76.72,76.72,0,0,0,9.08-2.47l0-24.6a3.67,3.67,0,0,0-1.12-2.87,4.9,4.9,0,0,0-2.34-1.35l.47-1.14,8.8,2c0,.41-.09,1.15-.19,2.17s-.14,2-.14,2.76v11.85h6l0-18.84a3.61,3.61,0,0,0-1.13-2.88,4.85,4.85,0,0,0-2.33-1.35l.47-1.14,9,2c0,.38-.09,1.08-.17,2.12s-.12,2-.12,2.76v47.22c0,1.79,0,6.59-2.43,8.29-.85.59-3.29,1.77-3.29-.68v-34h-6V139.6c0,1.58-.11,3.07-2.55,4.77-.85.6-2.89,1.78-2.89-.67V124.56a90,90,0,0,1-9.69,3.5,30.61,30.61,0,0,1-9.25,1.74,5.34,5.34,0,0,1-3.48-.9,4.15,4.15,0,0,1-1-2.92h0Z" style="fill:#231815"></path><path d="M205.33,92a3.6,3.6,0,0,0-1.12-2.88,4.81,4.81,0,0,0-2.32-1.35l.46-1.14,9.29,2c0,.38-.09,1.08-.17,2.12s-.11,2-.11,2.76v10.37h6.18v3.38h-6.18v9.45c0,1.58-.31,3.07-2.75,4.76-.85.61-3.3,1.78-3.3-.66Z" style="fill:#231815"></path><path d="M85.31,97.14c-4.09,7-22,15.33-26,16.28,0,0,0,0,0,0l.71,1.81c3.65-1,13-3.58,20.51-7.74,4,.9,10.39,3.88,16.56,7.74l3.86-4.57A54.67,54.67,0,0,0,83.7,105.5c1.54-1,9.17-6.31,11.88-10.3.5-1-1.2-1.2-2.08-1.2H62.94c-.8,0,0,1.26.4,1.72s1.12,1.42,2.18,1.42H85.31Z" style="fill:#231815"></path><path d="M105.39,119.34H54.47c-.94-.09.07,1.41.56,1.92a3.6,3.6,0,0,0,2.6,1.21h20V145c0,2.58,2.4,1.34,3.29.72,2.57-1.79,2.73-3.36,2.73-5V122.46h21.73Z" style="fill:#231815"></path><path d="M2.47,96.21c-.9,0,0,1.42.53,1.9a3.47,3.47,0,0,0,2.47,1.22H19.34C13.68,112.36,2.92,121,0,122.76l.69,1.72A51.16,51.16,0,0,0,17.77,111.7c4.26,2.54,7.22,8.82,8,11.68L31,119.77a31.24,31.24,0,0,0-11.48-10.19,48.17,48.17,0,0,0,8-12.19c.47-1-.27-1.18-1.14-1.18Z" style="fill:#231815"></path><path d="M38.28,92a3.6,3.6,0,0,0-1.12-2.88,4.86,4.86,0,0,0-2.32-1.35l.45-1.14,9.3,2c0,.38-.09,1.08-.17,2.12s-.12,2-.12,2.76v33.81c0,1.6-.32,3.08-2.74,4.78-.86.6-3.3,1.78-3.3-.68V110H31.83a3.44,3.44,0,0,1-2.47-1.24c-.49-.46-1.43-1.89-.53-1.89h9.43V99Z" style="fill:#231815"></path><path d="M15,131.78a3.56,3.56,0,0,0-1.12-2.87,4.75,4.75,0,0,0-2.32-1.36l.46-1.13,9.3,2c0,.37-.1,1.08-.18,2.12s-.11,1.95-.11,2.75v7a1.58,1.58,0,0,0,.59,1.36,1.92,1.92,0,0,0,1.23.41H44.3v3.13H20.94a9.44,9.44,0,0,1-4.1-.73,3.78,3.78,0,0,1-1.9-3.44h0Z" style="fill:#231815"></path><path d="M19,165.1v.5c-1.59.12-1.75.27-1.75,2.6v7.54c0,2.35-.26,3.85-1.78,5.18A5.59,5.59,0,0,1,13.42,182l-.21-.49a3.34,3.34,0,0,0,2.11-2.65,21.42,21.42,0,0,0,.23-3.91V168.2c0-2.33-.17-2.48-1.91-2.6v-.5Z" style="fill:#231815"></path><path d="M23,168.2c0-2.33-.17-2.48-1.79-2.6v-.5h8.89c0,.37.12,1.93.22,3.12l-.5.07a4.19,4.19,0,0,0-.73-2c-.33-.36-1-.51-2.24-.51H25.35c-.57,0-.61,0-.61.66v4.87h2.05c1.75,0,1.81-.13,2-1.71h.51v4.23H28.8c-.1-.79-.16-1.21-.43-1.45s-.71-.28-1.58-.28H24.74v3.79c0,1.21.12,1.85.51,2.11a4.29,4.29,0,0,0,2.07.26,3.53,3.53,0,0,0,2.56-.62,6.07,6.07,0,0,0,1-2.1l.51.07c-.1.6-.55,2.78-.71,3.35h-9.6v-.49c1.82-.13,2-.28,2-2.61Z" style="fill:#231815"></path><path d="M45,172.65c0,4-2,6-4.43,6-3,0-5-2.91-5-7s2-6.09,4.42-6.09C42.91,165.49,45,168,45,172.65Zm-4.49-7.87c-4.52,0-6.92,3.83-6.92,7.42,0,4,2.72,7.11,6.56,7.11s6.82-3,6.82-7.45C47,167.65,44,164.78,40.53,164.78Z" style="fill:#231815"></path><path d="M61.62,179.14h-.53l-8.81-11.26h0v5.45a34.54,34.54,0,0,0,.17,4.06c.1.75.65,1.05,2,1.11V179H49.52v-.49c1.12,0,1.65-.36,1.75-1.11a35.47,35.47,0,0,0,.16-4.06v-4.64c0-1.53,0-1.88-.38-2.37a2.2,2.2,0,0,0-1.79-.72v-.5h3l8.55,10.77h0v-5.1a35.33,35.33,0,0,0-.16-4.06c-.1-.75-.65-1.05-2-1.11v-.5h4.87v.5c-1.12,0-1.64.36-1.75,1.11a35.33,35.33,0,0,0-.16,4.06Z" style="fill:#231815"></path><path d="M71.16,165.1v.5c-1.58.12-1.74.27-1.74,2.6v7.54c0,2.35-.27,3.85-1.79,5.18a5.52,5.52,0,0,1-2,1.08l-.2-.49a3.35,3.35,0,0,0,2.11-2.65,22.56,22.56,0,0,0,.22-3.91V168.2c0-2.33-.16-2.48-1.91-2.6v-.5Z" style="fill:#231815"></path><path d="M78.53,165.1v.5c-1.63.12-1.79.27-1.79,2.6v4.47a7.58,7.58,0,0,0,.86,4.14,3.26,3.26,0,0,0,2.92,1.48,3.4,3.4,0,0,0,3-1.61,9.8,9.8,0,0,0,.91-4.74v-1.15a35.79,35.79,0,0,0-.16-4.08c-.1-.75-.65-1.05-2-1.11v-.5h4.87v.5c-1.11,0-1.64.36-1.74,1.11a35.79,35.79,0,0,0-.16,4.08v1.43c0,2.48-.37,4.23-1.55,5.55a5.47,5.47,0,0,1-7.08.45c-1.08-.92-1.56-2.37-1.56-4.8V168.2c0-2.33-.16-2.48-1.87-2.6v-.5Z" style="fill:#231815"></path><path d="M100,165.1v.5c-1.62.12-1.78.27-1.78,2.6v4.47a7.59,7.59,0,0,0,.85,4.14,3.27,3.27,0,0,0,2.92,1.48,3.41,3.41,0,0,0,3-1.61,9.8,9.8,0,0,0,.91-4.74v-1.15a35.79,35.79,0,0,0-.16-4.08c-.1-.75-.65-1.05-2-1.11v-.5h4.87v.5c-1.12,0-1.64.36-1.75,1.11a35.79,35.79,0,0,0-.16,4.08v1.43c0,2.48-.36,4.23-1.54,5.55a5.1,5.1,0,0,1-3.76,1.54,5,5,0,0,1-3.32-1.09c-1.08-.92-1.57-2.37-1.57-4.8V168.2c0-2.33-.16-2.48-1.87-2.6v-.5Z" style="fill:#231815"></path><path d="M122.7,179.14h-.53l-8.81-11.26h0v5.45a35.47,35.47,0,0,0,.16,4.06c.1.75.65,1.05,2,1.11V179H110.6v-.49c1.11,0,1.64-.36,1.74-1.11a32.33,32.33,0,0,0,.17-4.06v-4.64c0-1.53,0-1.88-.39-2.37a2.18,2.18,0,0,0-1.79-.72v-.5h3l8.54,10.77h0v-5.1a35.33,35.33,0,0,0-.16-4.06c-.1-.75-.65-1.05-2-1.11v-.5h4.87v.5c-1.11,0-1.64.36-1.74,1.11a35.33,35.33,0,0,0-.16,4.06Z" style="fill:#231815"></path><path d="M130.27,175.89c0,2.33.16,2.48,1.82,2.61V179h-5.36v-.49c1.67-.13,1.83-.28,1.83-2.61V168.2c0-2.33-.16-2.48-1.83-2.6v-.5h5.36v.5c-1.66.12-1.82.27-1.82,2.6Z" style="fill:#231815"></path><path d="M140.19,179.12c-1.38-3.82-3.33-9.1-4.2-11.47-.65-1.78-.93-1.93-2.15-2.05v-.5h4.93v.5l-.65.08c-.75.11-.87.32-.65,1,.53,1.59,2.09,5.79,3.57,9.79,1.06-2.95,2.81-7.8,3.25-9.19.39-1.22.18-1.49-.73-1.6l-.61-.06v-.5h4.45v.5c-1.36.15-1.55.3-2.3,2.18-.26.66-2.78,7-4.3,11.34Z" style="fill:#231815"></path><path d="M151,168.2c0-2.33-.16-2.48-1.79-2.6v-.5h8.89c0,.37.13,1.93.23,3.12l-.51.07a4.08,4.08,0,0,0-.73-2c-.33-.36-1-.51-2.23-.51h-1.55c-.56,0-.61,0-.61.66v4.87h2.06c1.74,0,1.8-.13,2-1.71h.51v4.23h-.51c-.1-.79-.16-1.21-.42-1.45s-.71-.28-1.58-.28h-2.06v3.79c0,1.21.13,1.85.51,2.11a4.34,4.34,0,0,0,2.07.26,3.53,3.53,0,0,0,2.56-.62,5.89,5.89,0,0,0,1-2.1l.51.07c-.1.6-.55,2.78-.71,3.35H149v-.49c1.83-.13,2-.28,2-2.61Z" style="fill:#231815"></path><path d="M164.93,166.41c0-.43.07-.54.19-.58a3.44,3.44,0,0,1,1.13-.11,2.91,2.91,0,0,1,3.07,3.15,3.55,3.55,0,0,1-1.18,2.82,2.9,2.9,0,0,1-2,.57h-1.18Zm0,6.47H166a1.31,1.31,0,0,1,1.28.77c.57,1,1.42,2.59,2.05,3.55.77,1.17,1.48,1.92,3.82,2h.28l0-.4a2.61,2.61,0,0,1-1.52-1.07,19.42,19.42,0,0,1-1.71-2.35c-.61-.94-1.44-2.41-1.8-3.06a4,4,0,0,0,2.68-3.73,3.18,3.18,0,0,0-1.34-2.74,5.75,5.75,0,0,0-3.21-.73h-5.16v.5c1.63.12,1.79.27,1.79,2.6v7.69c0,2.33-.16,2.48-1.87,2.61V179h5.4v-.49c-1.66-.13-1.83-.28-1.83-2.61Z" style="fill:#231815"></path><path d="M175.63,175.23c.33,1,1.36,3.38,3.51,3.38a2.47,2.47,0,0,0,2.52-2.76c0-1.81-1.32-2.56-2.62-3.23-.67-.34-3.41-1.34-3.41-3.91a3.89,3.89,0,0,1,4.18-3.93,5.74,5.74,0,0,1,1.69.28,7.41,7.41,0,0,0,.77.24c.08.74.2,1.6.36,2.88l-.5.07c-.35-1.27-.92-2.76-2.76-2.76a2.18,2.18,0,0,0-2.2,2.37c0,1.58,1.08,2.29,2.62,3,1.34.62,3.47,1.5,3.47,4.15a4.28,4.28,0,0,1-4.5,4.29,6.27,6.27,0,0,1-1.93-.32,11.46,11.46,0,0,1-1.12-.45c-.16-.55-.38-2.07-.59-3.22Z" style="fill:#231815"></path><path d="M189.25,175.89c0,2.33.16,2.48,1.83,2.61V179h-5.36v-.49c1.66-.13,1.83-.28,1.83-2.61V168.2c0-2.33-.17-2.48-1.83-2.6v-.5h5.36v.5c-1.67.12-1.83.27-1.83,2.6Z" style="fill:#231815"></path><path d="M199.85,175.89c0,2.33.16,2.48,2.15,2.61V179h-5.93v-.49c1.91-.13,2.07-.28,2.07-2.61V165.81h-.95c-1.81,0-2.36.28-2.66.68a5.6,5.6,0,0,0-.71,1.84h-.51c.08-1.3.2-2.67.24-3.76h.29c.3.49.51.53,1,.53h8.33c.52,0,.62-.12.95-.53h.28c0,.9.13,2.46.23,3.7l-.51.06a4.27,4.27,0,0,0-.73-2c-.35-.41-1-.56-2.23-.56h-1.36Z" style="fill:#231815"></path><path d="M213,175.89c0,2.33.16,2.48,2.11,2.61V179h-5.85v-.49c1.87-.13,2-.28,2-2.61v-2.43a2.29,2.29,0,0,0-.44-1.28c-.92-1.67-1.71-3.21-2.58-4.79s-1-1.64-2.13-1.79v-.5H211v.5l-.93.12c-.51.09-.65.28-.31.94.91,1.8,1.85,3.57,2.84,5.32.86-1.7,1.77-3.46,2.52-5.21.35-.77.18-1-.59-1.07l-.81-.1v-.5h4.46v.5c-1.36.12-1.46.4-2.31,1.81s-1.68,3-2.56,4.68a2,2,0,0,0-.34,1.16Z" style="fill:#231815"></path></g></g></svg>